<!--?xml version="1.0" standalone="no"?-->
              <svg id="sw-js-blob-svg" viewBox="0 0 100 100" xmlns="http://www.w3.org/2000/svg" version="1.1">
                    <defs> 
                        <linearGradient id="sw-gradient" x1="0" x2="1" y1="1" y2="0">
                            <stop id="stop1" stop-color="rgba(83, 126, 215, 1)" offset="0%"></stop>
                            <stop id="stop2" stop-color="rgba(83, 126, 215, 0.6)" offset="100%"></stop>
                        </linearGradient>
                    </defs>
                <path fill="url(#sw-gradient)" d="M15.1,-18.9C21.3,-12.9,29.1,-9.7,33.6,-3.1C38.2,3.6,39.6,13.6,34.9,18.5C30.1,23.5,19.3,23.3,11.4,22C3.6,20.8,-1.2,18.6,-4.5,15.8C-7.8,13.1,-9.7,9.9,-12.8,6.5C-15.9,3,-20.1,-0.6,-21.8,-6.1C-23.5,-11.5,-22.7,-18.8,-18.6,-25.2C-14.6,-31.6,-7.3,-37.1,-1.4,-35.5C4.5,-33.8,9,-24.9,15.1,-18.9Z" width="100%" height="100%" transform="translate(50 50)" stroke-width="0" style="transition: all 0.3s ease 0s;"></path>
              </svg>